#!OML:ASF E:\CV Data\Top Level 1\Subject 1\Session 1\player.ASF
:FULLY-SPECIFIED
:DEGREES
563
root -3.01068 16.8536 8.21369 -182.221 -183.574 172.585
lowerback 14.926 2.30019 1.41363
upperback 0.691559 3.40175 1.39215
thorax -7.64122 1.62541 -0.0371719
lowerneck -14.3662 -11.8678 -16.8544
upperneck 11.9984 -15.7007 17.6617
head 8.9435 -6.89562 6.56455
rclavicle -3.08116e-015 1.35174e-014
rhumerus 334.555 46.6522 260.322
rradius 80.3069
rwrist -0.919305
rhand -18.5385 15.7515
rfingers 7.12502
rthumb 7.75061 -14.0864
lclavicle -3.08116e-015 1.35174e-014
lhumerus -27.0267 -20.8972 99.8894
lradius 77.4289
lwrist 29.5471
lhand -19.9875 26.8756
lfingers 7.12502
lthumb 6.35186 56.7603
rfemur -10.6221 0.500131 21.7201
rtibia 47.2108
rfoot -24.3967 -13.4149
rtoes -13.293
lfemur -26.9969 0.474552 2.2793
ltibia 43.9841
lfoot -11.4193 0.634409
ltoes -10.418
564
root -2.98653 16.881 8.16987 -182.152 -182.777 172.741
lowerback 14.6519 2.20942 1.38197
upperback 0.62169 3.28167 1.51863
thorax -7.57335 1.5718 0.149924
lowerneck -14.7625 -11.6222 -16.6053
upperneck 12.4027 -15.3057 17.1746
head 9.0059 -6.70914 6.4168
rclavicle 1.4561e-014 1.19271e-014
rhumerus 333.221 46.65 259.191
rradius 80.4152
rwrist -1.11977
rhand -19.0821 15.7915
rfingers 7.12502
rthumb 7.22592 -14.0651
lclavicle 1.4561e-014 1.19271e-014
lhumerus -27.3446 -21.3963 100.152
lradius 77.8683
lwrist 29.549
lhand -19.793 27.0415
lfingers 7.12502
lthumb 6.53964 56.9205
rfemur -10.8619 0.977288 21.4405
rtibia 47.0465
rfoot -24.0015 -12.9766
rtoes -13.2664
lfemur -26.2147 0.492547 2.27272
ltibia 44.8163
lfoot -11.5753 0.219105
ltoes -10.8711
565
root -2.9601 16.9076 8.12775 -182.098 -181.915 172.9
lowerback 14.37 2.12838 1.33942
upperback 0.566352 3.17195 1.64522
thorax -7.48509 1.52372 0.340795
lowerneck -15.1578 -11.3605 -16.3447
upperneck 12.7969 -14.8891 16.6883
head 9.06404 -6.51411 6.27105
rclavicle 1.0138e-014 6.36111e-015
rhumerus 331.967 46.6457 258.146
rradius 80.5284
rwrist -1.38939
rhand -19.7341 15.831
rfingers 7.12502
rthumb 6.59653 -14.0463
lclavicle 1.0138e-014 6.36111e-015
lhumerus -27.6982 -21.8204 100.412
lradius 78.3364
lwrist 29.4915
lhand -19.5739 27.2595
lfingers 7.12502
lthumb 6.75113 57.1319
rfemur -11.0861 1.47844 21.1462
rtibia 46.8669
rfoot -23.6187 -12.5065
rtoes -13.2547
lfemur -25.3712 0.510032 2.25725
ltibia 45.6591
lfoot -11.723 -0.178707
ltoes -11.2813
566
root -2.93181 16.9324 8.0858 -182.048 -181.039 173.054
lowerback 14.0875 2.03953 1.29689
upperback 0.518587 3.05152 1.77191
thorax -7.3874 1.47037 0.533121
lowerneck -15.5466 -11.0829 -16.0683
upperneck 13.1772 -14.4527 16.2004
head 9.11567 -6.31153 6.12545
rclavicle -1.71452e-014 -1.39149e-014
rhumerus 330.806 46.6458 257.194
rradius 80.6384
rwrist -1.61731
rhand -20.4672 15.881
rfingers 7.12502
rthumb 5.88878 -14.0171
lclavicle -1.71452e-014 -1.39149e-014
lhumerus -28.0843 -22.1791 100.669
lradius 78.8246
lwrist 29.3277
lhand -19.3464 27.4492
lfingers 7.12502
lthumb 6.97073 57.3145
rfemur -11.3105 1.96761 20.8454
rtibia 46.6779
rfoot -23.2517 -12.0151
rtoes -13.2326
lfemur -24.509 0.503308 2.23496
ltibia 46.5079
lfoot -11.858 -0.620244
ltoes -11.7461
567
root -2.90148 16.9552 8.04343 -182.009 -180.164 173.203
lowerback 13.8222 1.93872 1.26397
upperback 0.474063 2.91668 1.89558
thorax -7.29421 1.40937 0.718143
lowerneck -15.9136 -10.7898 -15.7759
upperneck 13.5385 -13.9993 15.7138
head 9.15729 -6.10326 5.98076
rclavicle -1.27471e-014 -1.78906e-014
rhumerus 329.737 46.6495 256.334
rradius 80.7381
rwrist -1.72381
rhand -21.2432 15.9299
rfingers 7.12502
rthumb 5.13955 -13.9877
lclavicle -1.27471e-014 -1.78906e-014
lhumerus -28.5169 -22.4903 100.928
lradius 79.3377
lwrist 29.0144
lhand -19.0967 27.7092
lfingers 7.12502
lthumb 7.21181 57.5663
rfemur -11.5333 2.43518 20.5393
rtibia 46.4855
rfoot -22.9029 -11.5049
rtoes -13.1911
lfemur -23.6318 0.459342 2.20445
ltibia 47.3577
lfoot -11.9846 -1.13976
ltoes -12.332
568
root -2.86886 16.9755 8.00036 -181.987 -179.288 173.349
lowerback 13.5837 1.82542 1.24078
upperback 0.435429 2.76667 2.01447
thorax -7.20787 1.34028 0.893811
lowerneck -16.2665 -10.4811 -15.4696
upperneck 13.8823 -13.529 15.233
head 9.19166 -5.88837 5.8386
rclavicle 9.29318e-015 -4.77083e-015
rhumerus 328.772 46.6538 255.577
rradius 80.8241
rwrist -1.66991
rhand -21.9635 15.9947
rfingers 7.12502
rthumb 4.444 -13.9387
lclavicle 9.29318e-015 -4.77083e-015
lhumerus -28.9914 -22.7617 101.185
lradius 79.8716
lwrist 28.5384
lhand -18.8352 27.9899
lfingers 7.12502
lthumb 7.4642 57.8383
rfemur -11.7535 2.87687 20.2234
rtibia 46.297
rfoot -22.5748 -10.974
rtoes -13.1242
lfemur -22.7352 0.374341 2.15953
ltibia 48.203
lfoot -12.1022 -1.76883
ltoes -13.0731
569
root -2.83398 16.993 7.95618 -181.986 -178.411 173.493
lowerback 13.3815 1.70054 1.22536
upperback 0.400157 2.60264 2.1279
thorax -7.13663 1.26367 1.06002
lowerneck -16.5939 -10.1567 -15.1435
upperneck 14.208 -13.0433 14.7506
head 9.21589 -5.66835 5.69519
rclavicle -1.54307e-014 -1.43125e-014
rhumerus 327.9 46.657 254.916
rradius 80.9041
rwrist -1.46603
rhand -22.5959 16.0493
rfingers 7.12502
rthumb 3.83331 -13.896
lclavicle -1.54307e-014 -1.43125e-014
lhumerus -29.5062 -23.0002 101.441
lradius 80.4135
lwrist 27.898
lhand -18.5849 28.2331
lfingers 7.12502
lthumb 7.70586 58.0727
rfemur -11.9718 3.2927 19.9004
rtibia 46.1194
rfoot -22.2667 -10.4295
rtoes -13.0546
lfemur -21.8166 0.251081 2.09946
ltibia 49.0378
lfoot -12.2181 -2.52076
ltoes -13.9582
570
root -2.79681 17.0078 7.91108 -182 -177.518 173.632
lowerback 13.209 1.57118 1.22026
upperback 0.368499 2.43414 2.23533
thorax -7.0765 1.18415 1.21331
lowerneck -16.8964 -9.81958 -14.7992
upperneck 14.514 -12.547 14.2704
head 9.23105 -5.44487 5.55117
rclavicle 3.59055e-015 6.36111e-015
rhumerus 327.123 46.6599 254.357
rradius 80.9794
rwrist -1.17237
rhand -23.1122 16.0847
rfingers 7.12502
rthumb 3.3347 -13.869
lclavicle 3.59055e-015 6.36111e-015
lhumerus -30.0518 -23.2179 101.694
lradius 80.9506
lwrist 27.1301
lhand -18.3023 28.4752
lfingers 7.12502
lthumb 7.97854 58.3046
rfemur -12.1955 3.69468 19.5752
rtibia 45.9571
rfoot -21.9807 -9.87218
rtoes -12.9755
lfemur -20.8721 0.104698 2.02658
ltibia 49.8539
lfoot -12.3393 -3.39989
ltoes -14.9412
571
root -2.75839 17.0198 7.86372 -182.014 -176.638 173.768
lowerback 13.0666 1.43229 1.21002
upperback 0.33182 2.25262 2.3381
thorax -7.03756 1.09811 1.36555
lowerneck -17.1786 -9.4718 -14.4377
upperneck 14.8091 -12.0432 13.7921
head 9.24174 -5.21898 5.40587
rclavicle 4.74598e-015 -7.7526e-015
rhumerus 326.432 46.6664 253.894
rradius 81.0645
rwrist -0.864046
rhand -23.5083 16.0916
rfingers 7.12502
rthumb 2.95223 -13.8677
lclavicle 4.74598e-015 -7.7526e-015
lhumerus -30.6217 -23.4232 101.945
lradius 81.4781
lwrist 26.2954
lhand -17.9491 28.7506
lfingers 7.12502
lthumb 8.3195 58.5668
rfemur -12.4454 4.06733 19.2514
rtibia 45.8158
rfoot -21.7144 -9.31656
rtoes -12.8888
lfemur -19.9359 -0.0606132 1.94216
ltibia 50.6453
lfoot -12.4568 -4.43457
ltoes -16.0027
572
root -2.71886 17.0291 7.81454 -182.021 -175.759 173.896
lowerback 12.9413 1.29088 1.19503
upperback 0.288546 2.06736 2.43841
thorax -7.01445 1.01021 1.5176
lowerneck -17.4342 -9.11353 -14.0691
upperneck 15.0961 -11.5334 13.3272
head 9.2496 -4.99089 5.26488
rclavicle -1.42442e-014 2.38542e-015
rhumerus 325.817 46.6858 253.52
rradius 81.1658
rwrist -0.630614
rhand -23.8223 16.0275
rfingers 7.12502
rthumb 2.64895 -13.9358
lclavicle -1.42442e-014 2.38542e-015
lhumerus -31.2071 -23.6302 102.198
lradius 81.9823
lwrist 25.4624
lhand -17.5551 28.9842
lfingers 7.12502
lthumb 8.69964 58.785
rfemur -12.7272 4.41876 18.9365
rtibia 45.6963
rfoot -21.4683 -8.76345
rtoes -12.7965
lfemur -19.0068 -0.23095 1.85245
ltibia 51.404
lfoot -12.5767 -5.61061
ltoes -17.1017
573
root -2.67836 17.036 7.76339 -182.011 -174.888 174.013
lowerback 12.8195 1.14673 1.17431
upperback 0.241628 1.8778 2.54022
thorax -6.99648 0.92037 1.67472
lowerneck -17.691 -8.75194 -13.6923
upperneck 15.386 -11.0235 12.8671
head 9.26358 -4.76268 5.12333
rclavicle -1.51868e-014 -3.34704e-014
rhumerus 325.287 46.7313 253.24
rradius 81.2944
rwrist -0.551417
rhand -24.0889 15.8688
rfingers 7.12502
rthumb 2.39153 -14.0975
lclavicle -1.51868e-014 -3.34704e-014
lhumerus -31.7902 -23.842 102.455
lradius 82.4687
lwrist 24.701
lhand -17.1104 29.2144
lfingers 7.12502
lthumb 9.12879 58.9968
rfemur -13.052 4.74666 18.636
rtibia 45.5986
rfoot -21.2401 -8.21905
rtoes -12.6886
lfemur -18.102 -0.407802 1.76078
ltibia 52.1239
lfoot -12.688 -6.91889
ltoes -18.2107
